<svg xmlns="http://www.w3.org/2000/svg" xmlns:xlink="http://www.w3.org/1999/xlink" width="100%" height="100%" version="1.1" viewBox="0 0 31 31" xml:space="preserve" style="fill-rule:evenodd;clip-rule:evenodd;stroke-linejoin:round;stroke-miterlimit:2"><path d="M30.54,15.872c0,-8.285 -6.715,-15 -15,-15l0,-0c-8.284,-0 -15,6.715 -15,15l0,-0c0,8.284 6.716,15 15,15l0,-0c8.285,-0 15,-6.716 15,-15l0,-0Z" style="fill:#54546d"/><path d="M30.54,15.872c0,-8.285 -6.715,-15 -15,-15l0,-0c-8.284,-0 -15,6.715 -15,15l0,-0c0,8.284 6.716,15 15,15l0,-0c8.285,-0 15,-6.716 15,-15l0,-0Zm-2,-0l0,-0c0,7.179 -5.82,13 -13,13l0,-0c-7.179,-0 -13,-5.821 -13,-13l0,-0c0,-7.18 5.821,-13 13,-13l0,-0c7.18,-0 13,5.82 13,13Z"/></svg>