<svg xmlns="http://www.w3.org/2000/svg" xmlns:xlink="http://www.w3.org/1999/xlink" width="100%" height="100%" version="1.1" viewBox="0 0 31 31" xml:space="preserve" style="fill-rule:evenodd;clip-rule:evenodd;stroke-linejoin:round;stroke-miterlimit:2"><path d="M30.536,15.866c0,-8.281 -6.713,-14.994 -14.994,-14.994l-0.003,-0c-8.281,-0 -14.994,6.713 -14.994,14.994l-0,0.012c-0,8.281 6.713,14.994 14.994,14.994l0.003,-0c8.281,-0 14.994,-6.713 14.994,-14.994l0,-0.012Z" style="fill:#49443c"/><path d="M30.536,15.866c0,-8.281 -6.713,-14.994 -14.994,-14.994l-0.003,-0c-8.281,-0 -14.994,6.713 -14.994,14.994l-0,0.012c-0,8.281 6.713,14.994 14.994,14.994l0.003,-0c8.281,-0 14.994,-6.713 14.994,-14.994l0,-0.012Zm-2,-0l0,0.012c0,7.176 -5.817,12.994 -12.994,12.994l-0.003,-0c-7.177,-0 -12.994,-5.818 -12.994,-12.994l-0,-0.012c-0,-7.177 5.817,-12.994 12.994,-12.994l0.003,-0c7.177,-0 12.994,5.817 12.994,12.994Z"/></svg>